<svg width="1566" height="444" viewBox="0 0 1566 444" fill="none" xmlns="http://www.w3.org/2000/svg">
<path d="M45.0109 144C60.2109 144 71.6109 132.2 71.6109 115.8C71.6109 112.8 71.2109 110 70.6109 107.2H77.4109C76.8109 109.6 76.4109 112.6 76.4109 115.8C76.4109 132.4 87.8109 144 103.011 144C117.611 144 129.811 131.2 129.811 116.8C129.811 102.4 117.411 91.2001 101.411 89.6001L103.411 83.2001C110.011 86.8001 116.211 88.6001 122.411 88.6001C136.011 88.6001 147.611 76.0001 147.611 62.0001C147.611 47 135.411 35 121.011 35C109.811 35 98.8109 43.6001 94.2109 54.8001L89.0109 50.8001C96.0109 44.6001 101.011 35.4001 101.011 28.0001C101.011 13.2001 88.6109 0.800049 73.8109 0.800049C59.0109 0.800049 47.0109 13 47.0109 28.0001C47.0109 35.4001 51.8109 44.2001 59.0109 50.8001L53.8109 54.8001C49.2109 44.0001 38.0109 35 27.0109 35C12.6109 35 0.410889 46.8001 0.410889 62.0001C0.410889 76.2001 11.4109 88.6001 25.8109 88.6001C31.8109 88.6001 39.2109 86.2001 44.6109 83.2001L46.6109 89.6001C30.2109 91.2001 18.2109 102.4 18.2109 116.8C18.2109 131.6 30.6109 144 45.0109 144ZM73.8109 102C60.4109 102 49.4109 91.0001 49.4109 77.2001C49.4109 63.6001 60.2109 52.4001 73.8109 52.4001C87.4109 52.4001 98.6109 63.6001 98.6109 77.2001C98.6109 90.8001 87.4109 102 73.8109 102Z" fill="#FF99FF"/>
<path d="M1462.51 444C1477.71 444 1489.11 432.2 1489.11 415.8C1489.11 412.8 1488.71 410 1488.11 407.2H1494.91C1494.31 409.6 1493.91 412.6 1493.91 415.8C1493.91 432.4 1505.31 444 1520.51 444C1535.11 444 1547.31 431.2 1547.31 416.8C1547.31 402.4 1534.91 391.2 1518.91 389.6L1520.91 383.2C1527.51 386.8 1533.71 388.6 1539.91 388.6C1553.51 388.6 1565.11 376 1565.11 362C1565.11 347 1552.91 335 1538.51 335C1527.31 335 1516.31 343.6 1511.71 354.8L1506.51 350.8C1513.51 344.6 1518.51 335.4 1518.51 328C1518.51 313.2 1506.11 300.8 1491.31 300.8C1476.51 300.8 1464.51 313 1464.51 328C1464.51 335.4 1469.31 344.2 1476.51 350.8L1471.31 354.8C1466.71 344 1455.51 335 1444.51 335C1430.11 335 1417.91 346.8 1417.91 362C1417.91 376.2 1428.91 388.6 1443.31 388.6C1449.31 388.6 1456.71 386.2 1462.11 383.2L1464.11 389.6C1447.71 391.2 1435.71 402.4 1435.71 416.8C1435.71 431.6 1448.11 444 1462.51 444ZM1491.31 402C1477.91 402 1466.91 391 1466.91 377.2C1466.91 363.6 1477.71 352.4 1491.31 352.4C1504.91 352.4 1516.11 363.6 1516.11 377.2C1516.11 390.8 1504.91 402 1491.31 402Z" fill="#FF99FF"/>
<path d="M297.511 423C312.711 423 324.111 411.2 324.111 394.8C324.111 391.8 323.711 389 323.111 386.2H329.911C329.311 388.6 328.911 391.6 328.911 394.8C328.911 411.4 340.311 423 355.511 423C370.111 423 382.311 410.2 382.311 395.8C382.311 381.4 369.911 370.2 353.911 368.6L355.911 362.2C362.511 365.8 368.711 367.6 374.911 367.6C388.511 367.6 400.111 355 400.111 341C400.111 326 387.911 314 373.511 314C362.311 314 351.311 322.6 346.711 333.8L341.511 329.8C348.511 323.6 353.511 314.4 353.511 307C353.511 292.2 341.111 279.8 326.311 279.8C311.511 279.8 299.511 292 299.511 307C299.511 314.4 304.311 323.2 311.511 329.8L306.311 333.8C301.711 323 290.511 314 279.511 314C265.111 314 252.911 325.8 252.911 341C252.911 355.2 263.911 367.6 278.311 367.6C284.311 367.6 291.711 365.2 297.111 362.2L299.111 368.6C282.711 370.2 270.711 381.4 270.711 395.8C270.711 410.6 283.111 423 297.511 423ZM326.311 381C312.911 381 301.911 370 301.911 356.2C301.911 342.6 312.711 331.4 326.311 331.4C339.911 331.4 351.111 342.6 351.111 356.2C351.111 369.8 339.911 381 326.311 381Z" fill="#3366FF"/>
<path d="M1260.01 321C1275.21 321 1286.61 309.2 1286.61 292.8C1286.61 289.8 1286.21 287 1285.61 284.2H1292.41C1291.81 286.6 1291.41 289.6 1291.41 292.8C1291.41 309.4 1302.81 321 1318.01 321C1332.61 321 1344.81 308.2 1344.81 293.8C1344.81 279.4 1332.41 268.2 1316.41 266.6L1318.41 260.2C1325.01 263.8 1331.21 265.6 1337.41 265.6C1351.01 265.6 1362.61 253 1362.61 239C1362.61 224 1350.41 212 1336.01 212C1324.81 212 1313.81 220.6 1309.21 231.8L1304.01 227.8C1311.01 221.6 1316.01 212.4 1316.01 205C1316.01 190.2 1303.61 177.8 1288.81 177.8C1274.01 177.8 1262.01 190 1262.01 205C1262.01 212.4 1266.81 221.2 1274.01 227.8L1268.81 231.8C1264.21 221 1253.01 212 1242.01 212C1227.61 212 1215.41 223.8 1215.41 239C1215.41 253.2 1226.41 265.6 1240.81 265.6C1246.81 265.6 1254.21 263.2 1259.61 260.2L1261.61 266.6C1245.21 268.2 1233.21 279.4 1233.21 293.8C1233.21 308.6 1245.61 321 1260.01 321ZM1288.81 279C1275.41 279 1264.41 268 1264.41 254.2C1264.41 240.6 1275.21 229.4 1288.81 229.4C1302.41 229.4 1313.61 240.6 1313.61 254.2C1313.61 267.8 1302.41 279 1288.81 279Z" fill="#C9E265"/>
</svg>
